<?xml version="1.0" encoding="utf-8"?>
<!-- Generator: Adobe Illustrator 16.0.0, SVG Export Plug-In . SVG Version: 6.00 Build 0)  -->
<!DOCTYPE svg PUBLIC "-//W3C//DTD SVG 1.1//EN" "http://www.w3.org/Graphics/SVG/1.1/DTD/svg11.dtd">
<svg version="1.1" id="Layer_1" xmlns="http://www.w3.org/2000/svg" xmlns:xlink="http://www.w3.org/1999/xlink" x="0px" y="0px"
	 width="970px" height="283.833px" viewBox="0 0 970 283.833" enable-background="new 0 0 970 283.833" xml:space="preserve">
<g>
	<path fill="none" stroke="#D2D3D4" stroke-miterlimit="10" d="M113.106,19.625c70.196,0,127.104,56.907,127.104,127.104
		c0,70.194-56.908,127.104-127.104,127.104"/>
	<g>
		<polygon fill="#A82D33" points="161.701,67.898 2.115,67.898 2.115,227.666 161.701,227.666 		"/>
		<g>
			<path fill="#FFFFFF" d="M68.924,90.427c1.283,0,2.322,1.125,2.322,2.483c0,1.348-1.039,2.469-2.322,2.469
				c-1.275,0-2.323-1.122-2.323-2.469C66.602,91.557,67.649,90.427,68.924,90.427L68.924,90.427L68.924,90.427z M43.953,80.048
				h40.647v3.568h-1.915v16.612h-4.503V90.36h-3.254c0.333,0.773,0.586,1.617,0.586,2.546c0,3.391-2.945,6.233-6.59,6.233
				c-3.603,0-6.557-2.792-6.557-6.233c0-3.797,2.684-6.037,6.249-6.128l1.32-0.041h8.245v-3.124H59.859
				c0.594,0.781,1.054,1.624,1.304,2.588c0.648,2.248-0.075,4.374-1.811,5.974c-1.82,1.694-4.65,2.435-7.247,1.463l1.243-4.182
				c0.543,0.625,1.429,0.625,2.143,0.263c1.43-0.688,1.542-2.579,1.126-3.934c-0.282-0.853-0.793-1.633-1.362-1.982
				c-0.083-0.083-0.3-0.111-0.554-0.187h-4.445v9.909c0.024,2.513,0.306,3.059,2.581,3.142h8.496v3.561H50.256
				c-4.528,0-4.528-4.854-4.528-5.074V83.616h-1.779v-3.568H43.953z"/>
			<path fill="#FFFFFF" d="M19.559,79.648c3.741,0,6.803,2.835,6.803,6.315c0,1.293-0.392,2.495-1.082,3.498
				c0.876,1.006,1.471,2.29,1.625,3.686h1.787v-9.527H27.11v-3.568h8.267l-0.229-0.732c-0.349-1.087-0.639-1.899-1.82-2.4
				c-0.781-0.276-1.5-0.276-2.289-0.276h-1.387v-3.481h3.839c2.539-0.111,4.495,0.781,5.209,3.481l1.526,3.408h1.949v3.568h-1.72
				v16.611h-4.531V83.621h-2.716v16.611h-4.521v-4.258h-2.103c-0.934,2.749-3.676,4.761-6.888,4.761c-4,0-7.23-3.059-7.23-6.857
				c0-0.235,0-0.469,0.026-0.647h4.607c-0.138,0.298-0.222,0.647-0.222,1.03c0,1.484,1.218,2.685,2.751,2.685
				c1.463,0,2.701-1.201,2.701-2.685c0-0.812-0.397-1.542-0.996-2.053c-0.246-0.228-0.794-0.228-0.715-0.228h-1.965v-3.602h1.387
				c0,0,0.551,0,0.81-0.204c0.706-0.407,1.168-1.192,1.168-2.045c0-1.396-1.121-2.477-2.514-2.477c-1.413,0-2.521,1.081-2.521,2.477
				c0,0.17,0.041,0.316,0.066,0.46h-4.326c-0.041-0.178-0.041-0.381-0.041-0.623C12.688,82.483,15.746,79.648,19.559,79.648
				L19.559,79.648L19.559,79.648z"/>
			<path fill="#FFFFFF" d="M137.234,83.621v4.682H134.4c0.282-1.557-0.032-3.211-1.193-4.682H137.234L137.234,83.621z
				 M143.936,80.048H140.6c-0.657-0.4-1.125-0.965-1.125-1.633c0-1.081,1.3-1.965,2.799-1.965c1.518,0,2.783,0.884,2.783,1.965
				C145.057,79.083,144.589,79.648,143.936,80.048L143.936,80.048L143.936,80.048z M137.234,100.232h4.488V83.621h2.749v16.611
				h4.496V83.621h1.899v-3.568h-1.475c0.424-0.649,0.673-1.355,0.673-2.128c0-2.841-3.489-5.097-7.791-5.097
				c-4.309,0-7.781,2.256-7.781,5.097c0,0.773,0.237,1.475,0.64,2.128h-14.347v3.568h6.768c0.112,0.033,0.237,0.104,0.366,0.187
				c0.765,0.432,1.3,1.202,1.574,2.053c0.399,1.151,0.237,2.598-0.698,3.458c-0.503,0.493-1.167,0.73-1.932,0.543
				c-0.552-0.138-0.98-0.433-1.404-0.793v-2.962h-4.496v8.861c0,0,0,5.332,4.163,5.332h9.059v-3.552h-6.316
				c-2.338-0.042-2.298-0.205-2.41-2.045v-1.625c0.453,0.332,0.964,0.57,1.516,0.641c2.191,0.397,4.213-0.416,5.602-1.85h4.658
				V100.232L137.234,100.232z"/>
			<path fill="#FFFFFF" d="M108.124,80.048h3.297c0.655-0.4,1.111-0.965,1.111-1.633c0-1.081-1.233-1.965-2.791-1.965
				c-1.508,0-2.744,0.884-2.744,1.965C106.998,79.083,107.41,79.648,108.124,80.048L108.124,80.048L108.124,80.048z M86.969,80.048
				H102.6c-0.408-0.649-0.649-1.355-0.649-2.127c0-2.842,3.489-5.098,7.79-5.098c4.285,0,7.825,2.256,7.825,5.098
				c0,0.772-0.292,1.475-0.69,2.127h1.346v3.568h-2.344v16.612h-4.555V83.616h-2.978v16.612h-4.495V89.917h-3.166
				c0.647,1.046,1.039,2.288,1.039,3.609c0,3.832-3.175,6.922-7.084,6.922c-3.913,0-7.101-3.09-7.101-6.922
				c0-0.453,0.048-0.893,0.136-1.321h4.786c-0.074,0.316-0.12,0.623-0.12,0.98c0,1.803,1.063,3.297,2.418,3.297
				c1.304,0,2.385-1.494,2.385-3.297c0-1.71-1.006-3.14-2.199-3.268h-2.248v-3.587h11.152v-2.708H86.969V80.048L86.969,80.048z"/>
		</g>
		<g>
			<path fill="#FFFFFF" d="M38.622,208.167v-4.609v-0.626l-0.024-0.575v-0.512v-0.459l-0.041-0.385v-0.34l-0.035-0.288l-0.048-0.266
				l-0.163-0.534l-0.273-0.56l-0.376-0.455l-0.468-0.373l-0.536-0.293l-0.578-0.195l-0.666-0.081l-0.663-0.04h-6.923h-0.614
				l-0.579,0.121l-0.543,0.154l-0.511,0.187l-0.462,0.334l-0.366,0.373l-0.333,0.466l-0.235,0.503l-0.067,0.301l-0.088,0.313
				l-0.042,0.378l-0.025,0.435l-0.048,0.519v0.575v0.622l-0.042,0.702v4.604l0.042,0.646v0.548v0.535v0.436l0.048,0.397v0.308
				l0.025,0.264l0.042,0.264l0.212,0.57l0.261,0.554l0.367,0.466l0.493,0.378l0.57,0.279l0.586,0.187l0.664,0.123l0.649,0.033h6.921
				l0.603-0.033l0.576-0.081l0.546-0.154l0.493-0.237l0.462-0.308l0.39-0.382l0.325-0.452l0.17-0.488l0.127-0.34l0.034-0.35
				l0.05-0.382l0.034-0.438l0.041-0.503v-0.527l0.026-0.622v-0.685H38.622z M44.798,208.784v0.843l-0.043,0.782l-0.083,0.767
				l-0.065,0.717l-0.075,0.644l-0.122,0.665l-0.12,0.613l-0.146,0.545l-0.195,0.538l-0.211,0.498l-0.188,0.512l-0.227,0.427
				l-0.229,0.373l-0.283,0.402l-0.261,0.355l-0.282,0.31l-0.3,0.279l-0.357,0.248l-0.381,0.272l-0.408,0.239l-0.453,0.251
				l-0.436,0.171l-0.511,0.202l-0.555,0.147l-0.576,0.153l-0.632,0.146l-0.648,0.085l-0.657,0.123l-0.714,0.073l-0.765,0.044
				l-0.781,0.041h-0.801h-3.993h-0.86l-0.733-0.041l-0.784-0.044l-0.682-0.073l-0.706-0.123l-0.606-0.101l-0.623-0.13l-0.579-0.153
				l-0.544-0.147l-0.494-0.202l-0.453-0.22l-0.485-0.202l-0.383-0.264l-0.389-0.257l-0.359-0.244l-0.315-0.322l-0.3-0.316
				l-0.273-0.334l-0.22-0.397l-0.292-0.389l-0.227-0.422l-0.205-0.497l-0.179-0.503l-0.163-0.566l-0.161-0.527l-0.129-0.617
				l-0.12-0.65l-0.083-0.672l-0.076-0.666l-0.075-0.795v-0.779l-0.041-0.811v-5.885l0.041-0.828v-0.798l0.075-0.74l0.076-0.696
				l0.083-0.666l0.12-0.649l0.129-0.62l0.161-0.568l0.163-0.556l0.179-0.45l0.205-0.513l0.227-0.426l0.292-0.433l0.22-0.343
				l0.273-0.355l0.3-0.302l0.315-0.315l0.359-0.275l0.389-0.252l0.383-0.251l0.485-0.248l0.456-0.183l0.495-0.195l0.544-0.153
				l0.578-0.163l0.624-0.138l0.606-0.114l0.708-0.084l0.68-0.077l0.785-0.05l0.733-0.024h0.86h3.992h0.802l0.781,0.024l0.732,0.05
				l0.697,0.077l0.707,0.084l0.606,0.114l0.623,0.138l0.579,0.163l0.551,0.153l0.503,0.195l0.461,0.179l0.462,0.243l0.397,0.255
				l0.383,0.257l0.35,0.271l0.306,0.316l0.316,0.297l0.261,0.357l0.283,0.341l0.228,0.438l0.23,0.424l0.187,0.51l0.211,0.454
				l0.195,0.552l0.145,0.568l0.122,0.624l0.12,0.65l0.076,0.666l0.065,0.698l0.083,0.738l0.042,0.802v0.828v5.885H44.798z"/>
			<path fill="#FFFFFF" d="M113.035,208.784l-0.041,0.843v0.782l-0.083,0.767l-0.083,0.717l-0.083,0.644l-0.103,0.665l-0.113,0.613
				l-0.163,0.545l-0.187,0.538l-0.203,0.498l-0.187,0.512l-0.229,0.427l-0.246,0.373l-0.273,0.402l-0.263,0.355l-0.266,0.31
				l-0.306,0.279l-0.352,0.248l-0.397,0.272l-0.392,0.239l-0.451,0.251l-0.469,0.171l-0.52,0.202l-0.52,0.147l-0.594,0.153
				l-0.615,0.146l-0.649,0.085l-0.655,0.123l-0.748,0.073l-0.74,0.044l-0.771,0.041h-0.853h-3.976H96.67l-0.773-0.041l-0.73-0.044
				l-0.697-0.073l-0.69-0.123l-0.625-0.101l-0.615-0.13l-0.584-0.153l-0.538-0.147l-0.501-0.202l-0.47-0.22l-0.469-0.202
				l-0.391-0.264l-0.374-0.257l-0.341-0.244l-0.316-0.322l-0.314-0.316l-0.262-0.334l-0.284-0.397l-0.228-0.389l-0.229-0.422
				l-0.194-0.497l-0.194-0.503l-0.197-0.566l-0.152-0.527l-0.122-0.617l-0.111-0.65l-0.076-0.672l-0.082-0.666l-0.076-0.795v-0.779
				l-0.065-0.811v-5.885l0.065-0.828v-0.798l0.076-0.74l0.082-0.696l0.076-0.666l0.111-0.649l0.122-0.62l0.152-0.568l0.197-0.556
				l0.194-0.45l0.194-0.513l0.229-0.426l0.228-0.433l0.284-0.343l0.262-0.355l0.314-0.302l0.316-0.315l0.341-0.275l0.374-0.252
				l0.391-0.251l0.469-0.248l0.47-0.178l0.501-0.195l0.538-0.154l0.584-0.162l0.615-0.134l0.625-0.114l0.69-0.088l0.697-0.075
				l0.73-0.048l0.773-0.024h0.835h3.976h0.853l0.771,0.024l0.74,0.048l0.714,0.075l0.689,0.088l0.633,0.114l0.601,0.134l0.587,0.162
				l0.546,0.154l0.508,0.195l0.447,0.178l0.469,0.248l0.398,0.251l0.374,0.252l0.357,0.275l0.29,0.315l0.325,0.302l0.261,0.355
				l0.254,0.343l0.266,0.433l0.229,0.426l0.187,0.513l0.203,0.45l0.154,0.556l0.154,0.568l0.155,0.62l0.103,0.649l0.083,0.666
				l0.083,0.696l0.083,1.125v0.032h-6.167c0-0.349,0-0.349-0.033-0.689v-0.34l-0.024-0.288l-0.051-0.266l-0.163-0.534l-0.253-0.56
				l-0.405-0.455l-0.462-0.373l-0.536-0.293l-0.63-0.195l-0.607-0.081l-0.666-0.04h-6.929h-0.615l-0.578,0.121l-0.544,0.154
				l-0.512,0.187l-0.46,0.334l-0.383,0.373l-0.35,0.466l-0.187,0.503l-0.096,0.301l-0.048,0.313l-0.059,0.378l-0.032,0.435
				l-0.043,0.519v0.575v0.622l-0.041,0.702v4.604v0.646l0.041,0.548v0.535v0.436l0.043,0.397v0.308l0.032,0.264l0.059,0.264
				l0.17,0.57l0.273,0.554l0.39,0.466l0.462,0.378l0.528,0.279l0.638,0.187l0.639,0.123l0.666,0.033h6.93l0.602-0.033l0.57-0.081
				l0.553-0.154l0.495-0.237l0.46-0.308l0.391-0.382l0.323-0.452l0.17-0.488l0.083-0.34l0.083-0.35l0.051-0.382l0.024-0.438
				l0.034-0.341h-6.12v-6.154h6.676l0,0h5.646v4.775H113.035z"/>
			<polygon fill="#FFFFFF" points="147.392,209.627 147.348,210.405 147.264,211.169 147.23,211.884 147.126,212.531 
				147.006,213.197 146.872,213.814 146.737,214.359 146.52,214.893 146.378,215.396 146.155,215.907 145.917,216.329 
				145.672,216.703 145.457,217.101 145.136,217.458 144.862,217.766 144.563,218.049 144.206,218.293 143.84,218.57 
				143.432,218.805 142.963,219.058 142.511,219.227 142.008,219.429 141.445,219.576 140.877,219.729 140.255,219.877 
				139.602,219.965 138.947,220.088 138.247,220.16 137.47,220.2 136.699,220.241 135.879,220.241 131.895,220.241 131.085,220.241 
				130.261,220.2 129.552,220.16 128.829,220.088 128.168,219.965 127.502,219.859 126.887,219.729 126.312,219.576 
				125.758,219.429 125.263,219.227 124.811,219.007 124.37,218.805 123.95,218.546 123.577,218.293 123.212,218.049 
				122.895,217.727 122.633,217.41 122.327,217.076 122.102,216.679 121.816,216.29 121.637,215.868 121.404,215.371 
				121.209,214.868 121.063,214.302 120.897,213.774 120.734,213.157 120.624,212.507 120.544,211.835 120.461,211.169 
				120.428,210.374 120.385,209.595 120.385,208.784 120.385,202.899 120.385,202.071 120.428,201.27 120.461,200.531 
				120.544,199.833 120.624,199.167 120.734,198.517 120.897,197.893 121.063,197.324 121.209,196.772 121.404,196.318 
				121.637,195.809 121.816,195.385 122.102,194.947 122.327,194.606 122.633,194.249 122.895,193.95 123.212,193.632 
				123.577,193.356 123.95,193.104 124.37,192.854 124.811,192.61 125.263,192.432 125.758,192.236 126.312,192.083 126.887,191.92 
				127.502,191.782 128.168,191.668 128.829,191.58 129.552,191.507 130.261,191.457 131.085,191.433 131.895,191.433 
				135.879,191.433 136.699,191.433 137.47,191.457 138.202,191.507 138.912,191.58 139.602,191.668 140.221,191.782 
				140.827,191.92 141.421,192.083 141.95,192.236 142.468,192.432 142.932,192.61 143.38,192.854 143.792,193.104 144.165,193.356 
				144.513,193.632 144.83,193.95 145.136,194.249 145.406,194.606 145.672,194.947 145.917,195.385 146.155,195.809 
				146.342,196.318 146.52,196.772 146.737,197.324 146.872,197.893 147.006,198.517 147.126,199.167 147.23,199.833 
				147.264,200.531 147.348,201.27 147.392,202.071 147.392,202.112 141.219,202.112 141.184,201.845 141.184,201.381 
				141.184,201.001 141.152,200.661 141.115,200.368 141.064,200.107 140.927,199.573 140.641,199.014 140.255,198.559 
				139.78,198.186 139.253,197.893 138.679,197.697 138.008,197.616 137.346,197.576 130.419,197.576 129.809,197.576 
				129.214,197.697 128.683,197.852 128.168,198.038 127.708,198.372 127.315,198.745 127.009,199.215 126.789,199.719 
				126.709,200.02 126.618,200.336 126.597,200.709 126.556,201.14 126.506,201.658 126.506,202.233 126.506,202.859 
				126.482,203.558 126.482,208.167 126.506,208.814 126.506,209.359 126.506,209.896 126.506,210.326 126.556,210.724 
				126.556,211.031 126.597,211.299 126.618,211.567 126.813,212.134 127.093,212.688 127.478,213.157 127.95,213.531 
				128.525,213.814 129.095,214.001 129.768,214.122 130.419,214.154 137.346,214.154 137.924,214.122 138.519,214.04 
				139.046,213.887 139.565,213.651 140.034,213.344 140.408,212.962 140.715,212.507 140.945,212.021 141.033,211.679 
				141.064,211.332 141.115,210.95 141.152,210.513 141.184,210.008 141.184,209.627 			"/>
			<path fill="#FFFFFF" d="M79.004,219.877h-6.165v-14.008c0-1.241,0.154-2.555-0.025-3.757c-0.52-2.743-2.639-4.577-5.779-4.65
				c-1.916-0.072-3.481,0.154-5.091,1.25c-1.819,1.234-3.124,3.328-3.167,6.274v14.891h-6.119v-28.444h5.77v4.569
				c1.123-1.443,2.665-2.869,4.277-3.761c1.77-0.962,3.628-0.853,5.527-0.805c1.475,0.029,2.732,0.123,3.901,0.387
				c1.19,0.304,2.288,0.853,3.406,1.817c2.053,1.753,3.37,4.382,3.406,7.903L79.004,219.877L79.004,219.877z"/>
		</g>
		<path fill="#FFFFFF" d="M118.878,159.168c0.17-0.268,0.235-0.623,0.306-0.942c0.245-0.647,0.432-1.305,0.594-1.959l0,0
			c0.885-3.411,1.388-7.047,1.348-10.572l0,0c-0.122-10.813-4.609-20.612-11.818-27.654c-6.818-6.703-16.065-10.924-26.25-11.199
			l0.033,2.565c9.452,0.306,18.103,4.25,24.444,10.49c6.701,6.583,10.922,15.718,11.018,25.823l0,0
			c0.048,3.295-0.445,6.701-1.285,9.876v0.044c-0.067,0.325-0.17,0.628-0.253,0.942l-22.613,0.211
			c-0.615,0.087-0.928-0.334-0.964-1.299l-1.617-7.631l-8.222-38.738h-0.477l0.265,66.429c-0.375-0.032-0.784-0.076-1.275-0.076
			c-0.461,0-0.919,0.039-1.388,0.101l-0.468-66.459l-0.471,0.058l-7.766,38.765l-1.55,7.653c-0.041,0.981-0.349,1.322-0.917,1.322
			l-22.641,0.039c-0.111-0.287-0.187-0.619-0.253-0.936v-0.033c-0.892-3.181-1.436-6.541-1.436-9.865h0.032
			c0-10.121,4.106-19.291,10.736-25.951c6.274-6.315,14.833-10.345,24.314-10.729v-2.601c-10.185,0.383-19.396,4.725-26.138,11.509
			c-7.085,7.125-11.502,16.96-11.502,27.778l0,0c0,3.55,0.546,7.152,1.475,10.558l0,0c0.187,0.623,0.392,1.293,0.606,1.992
			c0.076,0.299,0.155,0.61,0.301,0.92c0.602,1.046,0.29,0.629,2.685,0.661l24.782-0.109c0.551,0,0.86-0.389,0.943-1.867
			l4.017-29.196l0.222,33.855h-3.985h-0.195H46.882l1.82,2.581h19.882c-2.881,1.906-5.391,4.316-7.425,7.06
			c-0.615,0.859-1.185,1.691-1.697,2.588c-0.501,0.9-0.963,1.786-1.387,2.739l0,0l0,0l0,0l0,0l0,0v0.062c0-0.062,0,0,0,0l0,0l0,0
			c0,0,0,0,0,0.03l2.68,1.303c0,0-0.048,0.046,0,0l0.059-0.193c0.348-0.799,0.793-1.651,1.249-2.427
			c0.463-0.815,0.966-1.6,1.525-2.333c2.775-3.838,6.657-6.887,10.99-8.598c0.237-0.114,0.503-0.187,0.766-0.239h2.417v4.053
			c-4.043,1.063-7.638,3.576-10.03,6.992c-0.543,0.777-1.022,1.599-1.438,2.442c-0.433,0.844-0.773,1.783-1.047,2.706l0,0l0,0l0,0
			l0,0l0,0l0,0c0,0,0,0,0,0.033l2.905,0.782l0,0l0,0c0.187-0.782,0.511-1.501,0.851-2.208c0.342-0.681,0.73-1.386,1.2-2.052
			c1.851-2.59,4.53-4.61,7.572-5.575l0.048,3.952c-2.629,1.518-4.417,4.349-4.417,7.554c0,0.102,0,0.264,0,0.389l17.406-0.048
			c0-0.105,0-0.239,0-0.341c0-3.262-1.787-6.115-4.464-7.635l-0.058-3.899c3.108,0.907,5.827,2.893,7.686,5.489
			c0.471,0.657,0.893,1.313,1.242,2.003c0.341,0.747,0.616,1.479,0.844,2.217h0.051v0.033l2.858-0.853v-0.033l0,0l0,0l0,0l0,0l0,0
			c-0.309-0.934-0.666-1.825-1.081-2.678c-0.433-0.843-0.943-1.662-1.484-2.434c-2.426-3.381-6.026-5.852-10.113-6.882l-0.024-4.053
			h2.054c0.935,0,1.158,0.16,1.777,0.479c4.122,1.702,7.741,4.596,10.421,8.163c0.594,0.742,1.08,1.509,1.55,2.342
			c0.52,0.795,0.902,1.618,1.283,2.409l0.083,0.198c0.026,0.041,0.026,0.041,0,0l2.671-1.354v-0.033l0,0c0,0,0,0-0.041,0
			c0.041,0,0,0,0,0l0,0l0,0l0,0l0,0c0,0,0,0,0-0.046l0,0c-0.391-0.916-0.884-1.865-1.396-2.697
			c-0.503-0.886-1.073-1.744-1.736-2.588c-2.028-2.72-4.625-5.125-7.484-6.939h19.874l1.804-2.634c-10.3,0.086-20.631,0-30.855,0.1
			l-0.153-33.841l4.375,29.157c0.111,1.476,0.432,1.874,0.963,1.874l24.743-0.154C118.649,159.834,118.333,160.256,118.878,159.168
			L118.878,159.168L118.878,159.168z"/>
		<path fill="#FFFFFF" d="M118.878,159.168c0.17-0.268,0.235-0.623,0.306-0.942c0.245-0.647,0.432-1.305,0.594-1.959l0,0
			c0.885-3.411,1.388-7.047,1.348-10.572l0,0c-0.122-10.813-4.609-20.612-11.818-27.654c-6.818-6.703-16.065-10.924-26.25-11.199
			l0.033,2.565c9.452,0.306,18.103,4.25,24.444,10.49c6.701,6.583,10.922,15.718,11.018,25.823l0,0
			c0.048,3.295-0.445,6.701-1.285,9.876v0.044c-0.067,0.325-0.17,0.628-0.253,0.942l-22.613,0.211
			c-0.615,0.087-0.928-0.334-0.964-1.299l-1.617-7.631l-8.222-38.738h-0.477l0.265,66.429c-0.375-0.032-0.784-0.076-1.275-0.076
			c-0.461,0-0.919,0.039-1.388,0.101l-0.468-66.459l-0.471,0.058l-7.766,38.765l-1.55,7.653c-0.041,0.981-0.349,1.322-0.917,1.322
			l-22.641,0.039c-0.111-0.287-0.187-0.619-0.253-0.936v-0.033c-0.892-3.181-1.436-6.541-1.436-9.865h0.032
			c0-10.121,4.106-19.291,10.736-25.951c6.274-6.315,14.833-10.345,24.314-10.729v-2.601c-10.185,0.383-19.396,4.725-26.138,11.509
			c-7.085,7.125-11.502,16.96-11.502,27.778l0,0c0,3.55,0.546,7.152,1.475,10.558l0,0c0.187,0.623,0.392,1.293,0.606,1.992
			c0.076,0.299,0.155,0.61,0.301,0.92c0.602,1.046,0.29,0.629,2.685,0.661l24.782-0.109c0.551,0,0.86-0.389,0.943-1.867
			l4.017-29.196l0.222,33.855h-3.985h-0.195H46.882l1.82,2.581h19.882c-2.881,1.906-5.391,4.316-7.425,7.06
			c-0.615,0.859-1.185,1.691-1.697,2.588c-0.501,0.9-0.963,1.786-1.387,2.739l0,0l0,0l0,0l0,0l0,0v0.062c0-0.062,0,0,0,0l0,0l0,0
			c0,0,0,0,0,0.03l2.68,1.303c0,0-0.048,0.046,0,0l0.059-0.193c0.348-0.799,0.793-1.651,1.249-2.427
			c0.463-0.815,0.966-1.6,1.525-2.333c2.775-3.838,6.657-6.887,10.99-8.598c0.237-0.114,0.503-0.187,0.766-0.239h2.417v4.053
			c-4.043,1.063-7.638,3.576-10.03,6.992c-0.543,0.777-1.022,1.599-1.438,2.442c-0.433,0.844-0.773,1.783-1.047,2.706l0,0l0,0l0,0
			l0,0l0,0l0,0c0,0,0,0,0,0.033l2.905,0.782l0,0l0,0c0.187-0.782,0.511-1.501,0.851-2.208c0.342-0.681,0.73-1.386,1.2-2.052
			c1.851-2.59,4.53-4.61,7.572-5.575l0.048,3.952c-2.629,1.518-4.417,4.349-4.417,7.554c0,0.102,0,0.264,0,0.389l17.406-0.048
			c0-0.105,0-0.239,0-0.341c0-3.262-1.787-6.115-4.464-7.635l-0.058-3.899c3.108,0.907,5.827,2.893,7.686,5.489
			c0.471,0.657,0.893,1.313,1.242,2.003c0.341,0.747,0.616,1.479,0.844,2.217h0.051v0.033l2.858-0.853v-0.033l0,0l0,0l0,0l0,0l0,0
			c-0.309-0.934-0.666-1.825-1.081-2.678c-0.433-0.843-0.943-1.662-1.484-2.434c-2.426-3.381-6.026-5.852-10.113-6.882l-0.024-4.053
			h2.054c0.935,0,1.158,0.16,1.777,0.479c4.122,1.702,7.741,4.596,10.421,8.163c0.594,0.742,1.08,1.509,1.55,2.342
			c0.52,0.795,0.902,1.618,1.283,2.409l0.083,0.198c0.026,0.041,0.026,0.041,0,0l2.671-1.354v-0.033l0,0c0,0,0,0-0.041,0
			c0.041,0,0,0,0,0l0,0l0,0l0,0l0,0c0,0,0,0,0-0.046l0,0c-0.391-0.916-0.884-1.865-1.396-2.697
			c-0.503-0.886-1.073-1.744-1.736-2.588c-2.028-2.72-4.625-5.125-7.484-6.939h19.874l1.804-2.634c-10.3,0.086-20.631,0-30.855,0.1
			l-0.153-33.841l4.375,29.157c0.111,1.476,0.432,1.874,0.963,1.874l24.743-0.154C118.649,159.834,118.333,160.256,118.878,159.168
			L118.878,159.168L118.878,159.168z"/>
		<path fill="#FFFFFF" d="M118.878,159.168c0.17-0.268,0.235-0.623,0.306-0.942c0.245-0.647,0.432-1.305,0.594-1.959l0,0
			c0.885-3.411,1.388-7.047,1.348-10.572l0,0c-0.122-10.813-4.609-20.612-11.818-27.654c-6.818-6.703-16.065-10.924-26.25-11.199
			l0.033,2.565c9.452,0.306,18.103,4.25,24.444,10.49c6.701,6.583,10.922,15.718,11.018,25.823l0,0
			c0.048,3.295-0.445,6.701-1.285,9.876v0.044c-0.067,0.325-0.17,0.628-0.253,0.942l-22.613,0.211
			c-0.615,0.087-0.928-0.334-0.964-1.299l-1.617-7.631l-8.222-38.738h-0.477l0.265,66.429c-0.375-0.032-0.784-0.076-1.275-0.076
			c-0.461,0-0.919,0.039-1.388,0.101l-0.468-66.459l-0.471,0.058l-7.766,38.765l-1.55,7.653c-0.041,0.981-0.349,1.322-0.917,1.322
			l-22.641,0.039c-0.111-0.287-0.187-0.619-0.253-0.936v-0.033c-0.892-3.181-1.436-6.541-1.436-9.865h0.032
			c0-10.121,4.106-19.291,10.736-25.951c6.274-6.315,14.833-10.345,24.314-10.729v-2.601c-10.185,0.383-19.396,4.725-26.138,11.509
			c-7.085,7.125-11.502,16.96-11.502,27.778l0,0c0,3.55,0.546,7.152,1.475,10.558l0,0c0.187,0.623,0.392,1.293,0.606,1.992
			c0.076,0.299,0.155,0.61,0.301,0.92c0.602,1.046,0.29,0.629,2.685,0.661l24.782-0.109c0.551,0,0.86-0.389,0.943-1.867
			l4.017-29.196l0.222,33.855h-3.985h-0.195H46.882l1.82,2.581h19.882c-2.881,1.906-5.391,4.316-7.425,7.06
			c-0.615,0.859-1.185,1.691-1.697,2.588c-0.501,0.9-0.963,1.786-1.387,2.739l0,0l0,0l0,0l0,0l0,0v0.062c0-0.062,0,0,0,0l0,0l0,0
			c0,0,0,0,0,0.03l2.68,1.303c0,0-0.048,0.046,0,0l0.059-0.193c0.348-0.799,0.793-1.651,1.249-2.427
			c0.463-0.815,0.966-1.6,1.525-2.333c2.775-3.838,6.657-6.887,10.99-8.598c0.237-0.114,0.503-0.187,0.766-0.239h2.417v4.053
			c-4.043,1.063-7.638,3.576-10.03,6.992c-0.543,0.777-1.022,1.599-1.438,2.442c-0.433,0.844-0.773,1.783-1.047,2.706l0,0l0,0l0,0
			l0,0l0,0l0,0c0,0,0,0,0,0.033l2.905,0.782l0,0l0,0c0.187-0.782,0.511-1.501,0.851-2.208c0.342-0.681,0.73-1.386,1.2-2.052
			c1.851-2.59,4.53-4.61,7.572-5.575l0.048,3.952c-2.629,1.518-4.417,4.349-4.417,7.554c0,0.102,0,0.264,0,0.389l17.406-0.048
			c0-0.105,0-0.239,0-0.341c0-3.262-1.787-6.115-4.464-7.635l-0.058-3.899c3.108,0.907,5.827,2.893,7.686,5.489
			c0.471,0.657,0.893,1.313,1.242,2.003c0.341,0.747,0.616,1.479,0.844,2.217h0.051v0.033l2.858-0.853v-0.033l0,0l0,0l0,0l0,0l0,0
			c-0.309-0.934-0.666-1.825-1.081-2.678c-0.433-0.843-0.943-1.662-1.484-2.434c-2.426-3.381-6.026-5.852-10.113-6.882l-0.024-4.053
			h2.054c0.935,0,1.158,0.16,1.777,0.479c4.122,1.702,7.741,4.596,10.421,8.163c0.594,0.742,1.08,1.509,1.55,2.342
			c0.52,0.795,0.902,1.618,1.283,2.409l0.083,0.198c0.026,0.041,0.026,0.041,0,0l2.671-1.354v-0.033l0,0c0,0,0,0-0.041,0
			c0.041,0,0,0,0,0l0,0l0,0l0,0l0,0c0,0,0,0,0-0.046l0,0c-0.391-0.916-0.884-1.865-1.396-2.697
			c-0.503-0.886-1.073-1.744-1.736-2.588c-2.028-2.72-4.625-5.125-7.484-6.939h19.874l1.804-2.634c-10.3,0.086-20.631,0-30.855,0.1
			l-0.153-33.841l4.375,29.157c0.111,1.476,0.432,1.874,0.963,1.874l24.743-0.154C118.649,159.834,118.333,160.256,118.878,159.168
			L118.878,159.168L118.878,159.168z"/>
	</g>
	<g>
		<path fill="#A82D33" d="M306.422,41.608v-8.71V31.74l-0.048-1.106v-0.956v-0.876l-0.083-0.724v-0.631l-0.059-0.551l-0.088-0.488
			l-0.297-1.022l-0.527-1.047l-0.698-0.86l-0.903-0.707l-0.996-0.543l-1.097-0.367l-1.252-0.153l-1.25-0.075h-13.066h-1.15
			l-1.089,0.228l-1.022,0.3l-0.956,0.341l-0.884,0.623l-0.689,0.714l-0.623,0.884l-0.433,0.953l-0.129,0.569l-0.161,0.602
			l-0.088,0.698l-0.042,0.793l-0.096,0.99v1.096v1.168l-0.075,1.304v8.71l0.075,1.209v1.021v1.022v0.81l0.096,0.749v0.57
			l0.042,0.511l0.088,0.512l0.397,1.078l0.487,1.032l0.682,0.884l0.925,0.714l1.073,0.52l1.114,0.367l1.25,0.227l1.218,0.051h13.066
			l1.126-0.051l1.089-0.163l1.022-0.266l0.941-0.452l0.853-0.586l0.74-0.723l0.615-0.86l0.332-0.909l0.236-0.657l0.067-0.658
			l0.087-0.714l0.059-0.817l0.083-0.943v-1.006l0.049-1.176v-1.295H306.422z M318.053,42.77v1.591l-0.075,1.454l-0.146,1.439
			l-0.128,1.353l-0.13,1.227l-0.227,1.258l-0.237,1.151l-0.273,1.022l-0.359,1.023l-0.406,0.951l-0.348,0.956l-0.425,0.793
			l-0.432,0.716l-0.544,0.738l-0.486,0.674l-0.528,0.594l-0.578,0.52l-0.682,0.468l-0.705,0.512l-0.773,0.453l-0.845,0.462
			l-0.825,0.323l-0.972,0.391l-1.039,0.274l-1.081,0.29l-1.193,0.276l-1.226,0.16l-1.25,0.229l-1.347,0.137l-1.429,0.083
			l-1.471,0.073h-1.525h-7.525h-1.617l-1.388-0.073l-1.474-0.083l-1.292-0.137l-1.329-0.229l-1.15-0.195l-1.168-0.245l-1.08-0.29
			l-1.03-0.274l-0.943-0.391l-0.853-0.414l-0.917-0.375l-0.716-0.492l-0.738-0.471l-0.673-0.469l-0.586-0.606l-0.568-0.594
			l-0.52-0.632l-0.424-0.739l-0.555-0.748l-0.422-0.794l-0.383-0.927l-0.34-0.951l-0.307-1.071l-0.309-0.996L267.816,51
			l-0.227-1.225l-0.146-1.269l-0.155-1.266l-0.135-1.493v-1.475l-0.076-1.507V31.665l0.076-1.566v-1.509l0.135-1.396l0.155-1.313
			l0.146-1.252l0.227-1.233l0.245-1.167l0.309-1.073l0.307-1.039l0.34-0.868l0.383-0.951l0.422-0.81l0.555-0.81l0.424-0.634
			l0.52-0.689l0.568-0.559l0.586-0.596l0.673-0.52l0.738-0.486l0.716-0.46l0.917-0.46l0.853-0.341l0.943-0.365l1.03-0.301l1.08-0.29
			l1.168-0.266l1.15-0.221l1.329-0.154l1.292-0.145l1.474-0.086l1.388-0.043h1.617h7.525h1.525l1.471,0.043l1.379,0.086l1.313,0.145
			l1.329,0.154l1.142,0.221l1.185,0.266l1.081,0.29l1.039,0.301l0.941,0.365l0.887,0.341l0.861,0.46l0.754,0.46L312,13.682
			l0.656,0.52l0.578,0.596l0.603,0.559l0.486,0.689l0.544,0.634l0.432,0.81l0.425,0.81l0.348,0.951l0.409,0.868l0.357,1.039
			l0.273,1.073l0.237,1.167l0.227,1.233l0.13,1.252l0.128,1.313l0.146,1.396l0.075,1.509v1.566V42.77L318.053,42.77z"/>
		<path fill="#A82D33" d="M446.719,42.77l-0.086,1.591v1.454l-0.155,1.439l-0.152,1.353l-0.146,1.227l-0.203,1.258l-0.213,1.151
			l-0.306,1.022l-0.351,1.023l-0.39,0.951l-0.349,0.956l-0.437,0.793l-0.436,0.716l-0.527,0.738l-0.488,0.674l-0.511,0.594
			l-0.577,0.52l-0.657,0.468l-0.764,0.512l-0.723,0.453l-0.86,0.462l-0.893,0.323l-0.982,0.391l-0.963,0.274l-1.114,0.29
			l-1.167,0.276l-1.233,0.16l-1.243,0.229l-1.396,0.137l-1.395,0.083l-1.455,0.073h-1.607h-7.5h-1.582l-1.447-0.073l-1.372-0.083
			l-1.321-0.137l-1.3-0.229l-1.176-0.195l-1.159-0.245l-1.114-0.29l-1.014-0.274l-0.944-0.391l-0.884-0.414l-0.893-0.375
			l-0.732-0.492l-0.707-0.471l-0.639-0.469l-0.594-0.606l-0.602-0.594l-0.496-0.632l-0.52-0.739l-0.436-0.748l-0.436-0.794
			l-0.357-0.927l-0.374-0.951l-0.367-1.071l-0.299-0.996L396.458,51l-0.212-1.225l-0.137-1.269l-0.144-1.266l-0.146-1.493v-1.475
			l-0.112-1.507V31.665l0.112-1.566v-1.509l0.146-1.396l0.144-1.313l0.137-1.252l0.212-1.233l0.221-1.167l0.299-1.073l0.367-1.039
			l0.374-0.868l0.357-0.951l0.436-0.81l0.436-0.81l0.52-0.634l0.496-0.689l0.602-0.559l0.594-0.596l0.639-0.52l0.707-0.486
			l0.732-0.46l0.893-0.46l0.884-0.341l0.944-0.365l1.014-0.301l1.114-0.29l1.159-0.266l1.176-0.221l1.3-0.154l1.321-0.145
			l1.372-0.086l1.447-0.043h1.582h7.5h1.607l1.455,0.043l1.395,0.086l1.337,0.145l1.302,0.154l1.199,0.221l1.126,0.266l1.106,0.29
			l1.03,0.301l0.956,0.365l0.836,0.341l0.885,0.46l0.748,0.46l0.723,0.486l0.666,0.52l0.567,0.596l0.602,0.559l0.488,0.689
			l0.46,0.634l0.503,0.81l0.437,0.81l0.349,0.951l0.39,0.868l0.284,1.039l0.299,1.073l0.282,1.167l0.204,1.233l0.144,1.252
			l0.155,1.313l0.154,2.136v0.057h-11.621c0-0.647,0-0.647-0.067-1.305v-0.63l-0.051-0.553l-0.085-0.486l-0.309-1.022l-0.479-1.047
			l-0.755-0.86l-0.886-0.707l-0.996-0.543l-1.193-0.365l-1.15-0.155l-1.252-0.075h-13.067h-1.167l-1.079,0.229l-1.022,0.298
			l-0.965,0.34L409.6,23.13l-0.714,0.715l-0.657,0.886l-0.358,0.951l-0.178,0.568l-0.096,0.603l-0.103,0.697l-0.067,0.794
			l-0.074,0.99v1.095v1.168l-0.074,1.305v8.71v1.209l0.074,1.021v1.022v0.812l0.074,0.746v0.57l0.067,0.512l0.103,0.511l0.325,1.08
			l0.52,1.03l0.74,0.885l0.876,0.714l0.987,0.52l1.202,0.367l1.217,0.227l1.26,0.051h13.066l1.128-0.051l1.062-0.163l1.048-0.266
			l0.935-0.453l0.876-0.586l0.73-0.722l0.606-0.86l0.325-0.909l0.146-0.657l0.163-0.658l0.084-0.714l0.051-0.817l0.067-0.658
			h-11.537V33.771h12.583l0,0h10.661V42.77L446.719,42.77z"/>
		<polygon fill="#A82D33" points="511.486,44.357 511.398,45.811 511.242,47.25 511.188,48.603 510.975,49.83 510.748,51.084 
			510.514,52.238 510.245,53.261 509.839,54.284 509.564,55.235 509.143,56.19 508.694,56.983 508.233,57.698 507.827,58.438 
			507.233,59.112 506.706,59.706 506.146,60.226 505.475,60.694 504.784,61.205 504.02,61.658 503.128,62.125 502.275,62.447 
			501.327,62.838 500.272,63.113 499.209,63.403 498.032,63.683 496.8,63.843 495.557,64.068 494.252,64.21 492.791,64.289 
			491.33,64.362 489.781,64.362 482.257,64.362 480.731,64.362 479.198,64.289 477.836,64.21 476.48,64.068 475.247,63.843 
			473.996,63.648 472.837,63.403 471.74,63.113 470.701,62.838 469.766,62.447 468.908,62.033 468.08,61.658 467.287,61.165 
			466.589,60.694 465.899,60.226 465.305,59.615 464.817,59.025 464.233,58.388 463.795,57.653 463.268,56.904 462.918,56.107 
			462.479,55.184 462.121,54.233 461.84,53.161 461.531,52.165 461.232,51.005 461.02,49.779 460.868,48.512 460.713,47.25 
			460.647,45.753 460.58,44.278 460.58,42.77 460.58,31.669 460.58,30.103 460.647,28.589 460.713,27.193 460.868,25.881 
			461.02,24.629 461.232,23.396 461.531,22.229 461.84,21.156 462.121,20.117 462.479,19.25 462.918,18.301 463.268,17.492 
			463.795,16.679 464.233,16.045 464.817,15.356 465.305,14.797 465.899,14.206 466.589,13.686 467.287,13.195 468.08,12.735 
			468.908,12.275 469.766,11.934 470.701,11.566 471.74,11.265 472.837,10.975 473.996,10.708 475.247,10.487 476.48,10.333 
			477.836,10.189 479.198,10.098 480.731,10.055 482.257,10.055 489.781,10.055 491.33,10.055 492.791,10.098 494.146,10.189 
			495.492,10.333 496.8,10.487 497.968,10.708 499.104,10.975 500.23,11.265 501.222,11.566 502.194,11.934 503.071,12.275 
			503.914,12.735 504.686,13.195 505.401,13.686 506.05,14.206 506.649,14.797 507.233,15.356 507.736,16.045 508.233,16.679 
			508.694,17.492 509.143,18.301 509.489,19.25 509.839,20.117 510.245,21.156 510.514,22.229 510.748,23.396 510.975,24.629 
			511.188,25.881 511.242,27.193 511.398,28.589 511.486,30.103 511.486,30.182 499.842,30.182 499.776,29.679 499.776,28.802 
			499.776,28.079 499.712,27.447 499.646,26.896 499.55,26.408 499.297,25.386 498.755,24.339 498.032,23.479 497.14,22.772 
			496.141,22.229 495.063,21.862 493.779,21.709 492.547,21.639 479.474,21.639 478.329,21.639 477.225,21.862 476.219,22.167 
			475.247,22.507 474.379,23.13 473.638,23.845 473.053,24.731 472.643,25.678 472.488,26.247 472.33,26.845 472.268,27.542 
			472.194,28.34 472.114,29.33 472.114,30.426 472.114,31.594 472.057,32.902 472.057,41.608 472.114,42.817 472.114,43.837 
			472.114,44.86 472.114,45.676 472.194,46.418 472.194,46.988 472.268,47.499 472.33,48.011 472.687,49.089 473.207,50.121 
			473.947,51.005 474.823,51.719 475.911,52.238 476.984,52.605 478.257,52.828 479.474,52.88 492.547,52.88 493.634,52.828 
			494.746,52.667 495.743,52.401 496.719,51.949 497.602,51.362 498.315,50.639 498.893,49.779 499.323,48.869 499.501,48.213 
			499.55,47.556 499.646,46.842 499.712,46.024 499.776,45.081 499.776,44.357 		"/>
		<path fill="#A82D33" d="M382.532,63.683h-11.615V37.278c0-2.345,0.285-4.819-0.056-7.092c-0.972-5.178-4.967-8.635-10.882-8.756
			c-3.604-0.136-6.566,0.283-9.595,2.353c-3.43,2.321-5.892,6.265-5.979,11.823v28.08h-11.521V10.063h10.875v8.61
			c2.109-2.726,5.031-5.415,8.056-7.101c3.343-1.823,6.847-1.608,10.435-1.509c2.768,0.043,5.146,0.229,7.347,0.725
			c2.256,0.568,4.316,1.598,6.426,3.422c3.881,3.287,6.355,8.258,6.429,14.891L382.532,63.683L382.532,63.683z"/>
	</g>
	<g>
		<g>
			<path fill="#6E6F72" d="M412.85,234.759c-4.309,1.127-8.122,1.696-11.458,1.696c-3.329,0-6.279-0.211-8.839-0.613
				c-2.562-0.417-5.305-1.208-8.226-2.386c-2.919-1.177-5.662-2.528-8.223-4.07c-2.558-1.533-5.123-3.431-7.688-5.687
				c-4.717-3.792-8.992-7.897-12.84-12.304c-3.842-4.411-11.247-12.684-22.215-24.835c-10.969-12.141-18.248-20.211-21.834-24.216
				c-3.585-3.991-6.352-6.094-8.302-6.296v-1.542c5.943,0,9.919-0.13,11.914-0.387c1.998-0.259,4.126-0.723,6.382-1.388
				c2.251-0.661,4.15-1.558,5.686-2.681c6.049-3.898,9.074-10.354,9.074-19.379c0-7.482-1.665-13.469-4.992-17.98
				c-3.338-4.512-8.028-6.818-14.074-6.922h-19.061v91.635c0,2.565,0.943,4.821,2.841,6.768c1.899,1.948,4.23,2.922,6.998,2.922
				h1.848l0.15,1.533h-33.671v-1.533h1.998c2.559,0,4.815-0.925,6.765-2.768c1.947-1.85,2.974-4.097,3.073-6.769V112.23
				c-0.099-2.67-1.104-4.948-2.994-6.838c-1.899-1.899-4.179-2.849-6.844-2.849h-1.998v-1.533h41.514
				c9.015,0,16.271,2.529,21.755,7.611c5.479,5.072,8.222,11.783,8.222,20.14c0,8.354-2.508,15.525-7.532,21.522
				c-5.022,6.001-11.172,8.99-18.45,8.99h-0.151c3.485,3.697,7.427,8.003,11.842,12.919c17.73,19.581,29.108,31.875,34.132,36.899
				c5.018,5.023,9.455,9.145,13.297,12.375c3.845,3.238,7.251,5.619,10.228,7.152c6.043,3.28,12.04,4.93,17.984,4.93
				c1.235,0,2.461-0.105,3.695-0.308v1.518H412.85z"/>
			<path fill="#6E6F72" d="M378.56,207.088c2.668,0,4.945-0.955,6.844-2.854c1.89-1.891,2.891-4.171,2.994-6.836v-86.101
				c0-2.461-0.972-4.538-2.919-6.224c-1.949-1.697-4.25-2.541-6.918-2.541h-1.846L376.562,101h31.214
				c3.178,0,6.636-0.308,10.375-0.927c3.739-0.619,6.387-1.233,7.92-1.84v19.37h-1.533v-2.767c0-2.461-0.848-4.563-2.538-6.308
				c-1.692-1.747-3.719-2.664-6.076-2.767h-17.525v47.506h29.208c2.049-0.097,3.793-0.868,5.232-2.305
				c1.432-1.433,2.153-3.229,2.153-5.382v-2.152h1.535v24.288h-1.535v-2.305c0-2.045-0.69-3.789-2.078-5.226
				c-1.379-1.441-3.1-2.199-5.149-2.309h-29.361v45.972h32.744c7.587,0,13.383-1.698,17.375-5.072
				c4.001-3.385,7.33-8.409,9.998-15.071h1.531l-8.916,24.905h-74.574v-1.533h1.998V207.088z"/>
			<path fill="#6E6F72" d="M513.248,98.541c8.918,0,16.352,2.152,22.291,6.453c7.998,5.746,11.994,14.713,11.994,26.912
				c0,8.81-2.458,16.353-7.376,22.598c-5.332,6.662-12.765,9.997-22.301,9.997c-5.023,0-9.584-1.209-13.681-3.618
				c-4.095-2.403-6.504-6.533-7.223-12.381l1.384-0.461c1.123,4.418,3.736,7.484,7.843,9.23c2.768,1.232,5.226,1.841,7.376,1.841
				c8.404,0,14.502-3.277,18.3-9.835c2.768-4.821,4.147-10.56,4.147-17.225c0-10.66-2.974-18.347-8.916-23.062
				c-4.512-3.694-10.252-5.534-17.224-5.534c-1.639,0-3.052,0.076-4.227,0.229c-1.182,0.152-6.331,0.996-15.451,2.538v91.167
				c0.097,2.768,1.122,5.077,3.075,6.922c1.948,1.843,4.204,2.768,6.759,2.768h2.002v1.533H468.35v-1.533h1.998
				c2.561,0,4.817-0.925,6.765-2.768c1.945-1.845,2.975-4.154,3.075-6.922v-83.177c0-2.663-0.769-4.739-2.311-6.224
				c-1.533-1.483-3.535-2.23-5.995-2.23c-0.512,0-1.022,0.057-1.534,0.152l-1.844,0.155l-0.308-1.542
				c5.327-0.512,12.478-1.507,21.452-2.994c8.969-1.484,14.528-2.352,16.679-2.613C508.483,98.666,510.79,98.541,513.248,98.541z"/>
			<path fill="#6E6F72" d="M597.806,136.819c-0.411-1.331-0.608-2.485-0.608-3.456c0-0.974,0.053-2.078,0.145-3.305
				c0.105-1.233,0.334-2.919,0.699-5.081c0.359-2.151,1.05-4.276,2.078-6.378c1.021-2.101,2.198-4.122,3.534-6.069
				c1.333-1.95,3.047-3.74,5.15-5.381c2.099-1.641,4.429-3.075,6.997-4.309c5.432-2.665,12.042-4.001,19.833-4.001
				c15.682,0,28.467,5.21,38.354,15.605c9.894,10.412,14.838,23.711,14.838,39.903c0,16.196-5.838,29.65-17.526,40.363
				c-11.682,10.711-26.5,16.066-44.434,16.066s-32.824-5.331-44.665-15.994c-11.84-10.653-17.755-24.499-17.755-41.516
				c0-10.966,2.557-20.701,7.688-29.206c5.124-8.512,12.457-15.172,21.988-19.988l0.925,1.379
				c-6.667,4.409-11.456,10.76-14.373,19.062c-2.922,8.31-4.385,17.123-4.385,26.448c0,17.325,4.71,30.854,14.145,40.592
				c9.428,9.737,21.521,14.605,36.277,14.605c14.762,0,26.828-4.892,36.21-14.681c9.38-9.781,14.069-22.68,14.069-38.667
				c0-13.843-3.717-25.523-11.15-35.057c-7.431-9.535-17.909-14.296-31.436-14.296c-6.05,0-11.533,1.071-16.458,3.228
				c-8.914,3.79-14.805,10.046-17.683,18.756c-0.815,2.563-1.226,4.76-1.226,6.612c0,1.842,0.099,3.33,0.31,4.455L597.806,136.819z"
				/>
			<path fill="#6E6F72" d="M839.192,234.759c-4.301,1.127-8.123,1.696-11.451,1.696c-3.339,0-6.284-0.211-8.846-0.613
				c-2.563-0.417-5.299-1.208-8.22-2.386c-2.922-1.177-5.668-2.528-8.229-4.07c-2.563-1.533-5.121-3.431-7.685-5.687
				c-4.718-3.792-8.995-7.897-12.837-12.304c-3.849-4.411-11.251-12.684-22.219-24.835c-10.973-12.141-18.252-20.211-21.837-24.216
				c-3.587-3.991-6.354-6.094-8.304-6.296v-1.542c5.949,0,9.92-0.13,11.922-0.387c1.992-0.259,4.118-0.723,6.374-1.388
				c2.256-0.661,4.152-1.558,5.689-2.681c6.045-3.898,9.077-10.354,9.077-19.379c0-7.482-1.668-13.469-5-17.98
				c-3.335-4.512-8.026-6.818-14.071-6.922h-19.065v91.635c0,2.565,0.954,4.821,2.843,6.768c1.9,1.948,4.237,2.922,7.003,2.922
				h1.843l0.154,1.533h-33.673v-1.533h1.992c2.563,0,4.819-0.925,6.769-2.768c1.948-1.85,2.974-4.097,3.075-6.769V112.23
				c-0.102-2.67-1.103-4.948-3.003-6.838c-1.894-1.899-4.176-2.849-6.841-2.849h-1.992v-1.533h41.513
				c9.015,0,16.271,2.529,21.755,7.611c5.479,5.072,8.22,11.783,8.22,20.14c0,8.354-2.506,15.525-7.529,21.522
				c-5.024,6.001-11.175,8.99-18.45,8.99h-0.153c3.485,3.697,7.429,8.003,11.844,12.919c17.731,19.581,29.108,31.875,34.132,36.899
				c5.023,5.023,9.454,9.145,13.301,12.375c3.837,3.238,7.246,5.619,10.223,7.152c6.048,3.28,12.04,4.93,17.984,4.93
				c1.232,0,2.467-0.105,3.692-0.308V234.759L839.192,234.759z"/>
			<path fill="#6E6F72" d="M788.612,131.592c-3.183-3.79-4.765-7.553-4.765-11.306c0-3.731,0.868-6.962,2.614-9.679
				c1.744-2.719,4.561-5.023,8.455-6.922c3.895-1.89,8.301-2.843,13.228-2.843h63.035c3.179,0,6.685-0.308,10.535-0.927
				c3.838-0.614,6.528-1.233,8.066-1.84v19.37l-1.538-0.154v-2.613c0-2.461-0.872-4.588-2.614-6.379
				c-1.744-1.794-3.793-2.742-6.146-2.85h-29.216v92.094c0.1,3.696,1.746,6.465,4.923,8.301c1.538,0.819,3.177,1.234,4.923,1.234
				h1.994v1.533h-33.668v-1.533h1.993c2.664,0,4.946-0.925,6.836-2.768c1.899-1.845,2.896-4.049,3.002-6.614V105.45h-32.126
				c-8.208,0-14.152,2.613-17.841,7.841c-1.948,2.67-2.917,5.459-2.917,8.383c0,2.925,0.819,5.975,2.458,9.144L788.612,131.592z"/>
			<path fill="#6E6F72" d="M907.763,167.722c-5.331,6.979-7.993,14.509-7.993,22.608c0,9.632,4.046,17.114,12.141,22.445
				c4.719,3.174,10.073,4.76,16.066,4.76c5.999,0,11.2-1.178,15.606-3.543c8.308-4.301,12.967-11.525,13.997-21.675
				c0.097-0.714,0.154-1.437,0.154-2.15c0-3.789-1.055-7.895-3.157-12.301c-2.102-4.406-5.509-8.457-10.223-12.149l-27.678-21.83
				c-6.05-4.715-9.072-10.819-9.072-18.298c0-7.479,2.41-13.812,7.228-18.989c4.813-5.167,11.323-7.764,19.523-7.764
				c4.099,0,8.563,0.52,13.382,1.54h6.144l0.308,18.91h-1.537c-0.102-4.919-1.872-8.788-5.303-11.604
				c-3.434-2.818-7.739-4.229-12.912-4.229c-5.178,0-9.509,1.712-12.991,5.152c-3.49,3.431-5.234,7.839-5.234,13.219
				c0,5.38,2.256,9.868,6.768,13.455l28.447,22.444c11.275,8.916,16.907,19.676,16.907,32.286c0,9.435-3.736,17.529-11.218,24.289
				c-6.465,5.843-15.071,8.765-25.835,8.765c-6.558,0-12.4-1.227-17.529-3.688c-9.633-4.512-15.425-12.198-17.373-23.063
				c-0.308-1.641-0.455-3.717-0.455-6.234c0-2.506,0.714-5.939,2.15-10.298c1.433-4.355,4.204-8.738,8.301-13.145L907.763,167.722z"
				/>
		</g>
	</g>
	<g>
		<path fill="#FFFFFF" d="M601.733,159.614c-4.091,2.409-7.353,4.707-9.674,6.451l-9.672,41.919l35.469,12.898l41.163-14.032
			l7.016-45.6c-2.523-0.837-36.991-13.767-51.408-8.088C613.483,153.613,608.16,155.825,601.733,159.614z"/>
		<g>
			<g>
				<g>
					<path fill="#6E6F72" d="M647.412,242.131l-64.071-11.899c-3.314-0.617-5.507-3.815-4.898-7.13l13.769-74.084
						c0.612-3.313,3.809-5.505,7.123-4.892l8.014,1.484l-0.749,4.007l-8.011-1.484c-1.107-0.207-2.162,0.522-2.373,1.63
						l-13.764,74.09c-0.202,1.103,0.529,2.162,1.632,2.37l64.076,11.904c1.103,0.206,2.166-0.523,2.372-1.633l13.769-74.088
						c0.202-1.103-0.529-2.161-1.636-2.37l-8.014-1.485l0.751-4.009l8.005,1.489c3.319,0.613,5.512,3.812,4.894,7.126
						l-13.764,74.084C653.921,240.554,650.727,242.744,647.412,242.131z"/>
				</g>
				<g>
					<polygon fill="#6E6F72" points="646.9,233.744 586.829,222.588 599.851,152.506 605.858,153.622 605.116,157.626 
						603.112,157.257 591.58,219.332 643.639,229.002 655.171,166.927 653.17,166.554 653.921,162.554 659.92,163.667 					"/>
				</g>
				<g>
					<path fill="#6E6F72" d="M650.795,168.188l-44.051-8.183l1.489-8.011c0.819-4.418,5.08-7.348,9.493-6.526l4.214,0.782
						c1.776-4.391,6.458-7.083,11.295-6.183c4.837,0.897,8.237,5.095,8.32,9.833l4.209,0.78c4.418,0.819,7.344,5.078,6.52,9.494
						L650.795,168.188z M611.495,156.741l36.047,6.695l0.742-4c0.409-2.208-1.054-4.341-3.262-4.756l-8.009-1.485l0.373-2.001
						c0.611-3.313-1.579-6.506-4.89-7.126c-3.319-0.61-6.509,1.58-7.126,4.896l-0.373,1.999l-8.009-1.489
						c-2.208-0.408-4.341,1.057-4.756,3.258L611.495,156.741z"/>
				</g>
				<g>
					
						<rect x="629.322" y="148.054" transform="matrix(-0.9832 -0.1827 0.1827 -0.9832 1224.673 412.985)" fill="#6E6F72" width="4.068" height="4.076"/>
				</g>
				<g>
					<polygon fill="#BE202E" points="610.878,182.345 606.472,175.918 609.823,173.613 611.935,176.68 619.752,171.312 
						622.061,174.668 					"/>
				</g>
				<g>
					<polygon fill="#BE202E" points="608.272,196.359 603.866,189.933 607.218,187.628 609.329,190.694 617.147,185.326 
						619.456,188.691 					"/>
				</g>
				<g>
					<polygon fill="#BE202E" points="605.67,210.374 601.259,203.947 604.613,201.643 606.724,204.714 614.542,199.345 
						616.851,202.706 					"/>
				</g>
				<g>
					
						<rect x="625.98" y="177.699" transform="matrix(-0.9832 -0.1826 0.1826 -0.9832 1226.7996 472.4051)" fill="#2E368F" width="18.327" height="4.075"/>
				</g>
				<g>
					<polygon fill="#2E368F" points="623.952,190.13 641.976,193.478 641.229,197.479 623.205,194.137 					"/>
				</g>
				<g>
					<polygon fill="#2E368F" points="621.347,204.145 639.37,207.492 638.624,211.492 620.601,208.149 					"/>
				</g>
			</g>
		</g>
	</g>
</g>
</svg>
